<svg width="10" height="15" viewBox="0 0 8 11" fill="none" xmlns="http://www.w3.org/2000/svg">
<path d="M4.49375 10.7528C5.5625 9.36995 8 6.01831 8 4.1357C8 1.85245 6.20833 0 4 0C1.79167 0 0 1.85245 0 4.1357C0 6.01831 2.4375 9.36995 3.50625 10.7528C3.7625 11.0824 4.2375 11.0824 4.49375 10.7528ZM4 2.75714C4.35362 2.75714 4.69276 2.90238 4.94281 3.16091C5.19286 3.41944 5.33333 3.77008 5.33333 4.1357C5.33333 4.50132 5.19286 4.85197 4.94281 5.1105C4.69276 5.36903 4.35362 5.51427 4 5.51427C3.64638 5.51427 3.30724 5.36903 3.05719 5.1105C2.80714 4.85197 2.66667 4.50132 2.66667 4.1357C2.66667 3.77008 2.80714 3.41944 3.05719 3.16091C3.30724 2.90238 3.64638 2.75714 4 2.75714Z" fill="#737373"/>
</svg>
